<mxfile host="Electron" agent="Mozilla/5.0 (Windows NT 10.0; Win64; x64) AppleWebKit/537.36 (KHTML, like Gecko) draw.io/26.0.9 Chrome/128.0.6613.186 Electron/32.2.5 Safari/537.36" version="26.0.9">
  <diagram id="R2lEEEUBdFMjLlhIrx00" name="Page-1">
    <mxGraphModel dx="1105" dy="662" grid="1" gridSize="10" guides="1" tooltips="1" connect="1" arrows="1" fold="1" page="1" pageScale="1" pageWidth="850" pageHeight="1100" background="none" math="0" shadow="0" extFonts="Permanent Marker^https://fonts.googleapis.com/css?family=Permanent+Marker">
      <root>
        <mxCell id="0" />
        <mxCell id="1" parent="0" />
        <mxCell id="QR9d3r7scgIrLYgvwBB5-1" value="Tags" style="swimlane;childLayout=stackLayout;horizontal=1;startSize=30;horizontalStack=0;rounded=1;fontSize=14;fontStyle=0;strokeWidth=2;resizeParent=0;resizeLast=1;shadow=0;dashed=0;align=center;arcSize=4;whiteSpace=wrap;html=1;strokeColor=none;fillColor=light-dark(#222222,#222222);fontColor=light-dark(#000000,#D7D7D9);" parent="1" vertex="1">
          <mxGeometry x="110" y="80" width="160" height="100" as="geometry">
            <mxRectangle x="30" y="20" width="70" height="30" as="alternateBounds" />
          </mxGeometry>
        </mxCell>
        <mxCell id="QR9d3r7scgIrLYgvwBB5-2" value="&lt;u&gt;tag_id&lt;/u&gt;&lt;div&gt;tag_name&lt;/div&gt;&lt;div&gt;created_at&lt;/div&gt;&lt;div&gt;created_by&lt;/div&gt;" style="align=left;strokeColor=none;fillColor=light-dark(#FFFFFF,#37383F);spacingLeft=4;spacingRight=4;fontSize=12;verticalAlign=top;resizable=0;rotatable=0;part=1;html=1;whiteSpace=wrap;fontColor=light-dark(#000000,#D7D7D9);" parent="QR9d3r7scgIrLYgvwBB5-1" vertex="1">
          <mxGeometry y="30" width="160" height="70" as="geometry" />
        </mxCell>
        <mxCell id="QR9d3r7scgIrLYgvwBB5-4" value="Resources" style="swimlane;childLayout=stackLayout;horizontal=1;startSize=30;horizontalStack=0;rounded=1;fontSize=14;fontStyle=0;strokeWidth=2;resizeParent=0;resizeLast=1;shadow=0;dashed=0;align=center;arcSize=4;whiteSpace=wrap;html=1;strokeColor=none;fillColor=light-dark(#FFFFFF,#222222);fontColor=light-dark(#000000,#D7D7D9);" parent="1" vertex="1">
          <mxGeometry x="110" y="320" width="160" height="100" as="geometry" />
        </mxCell>
        <mxCell id="QR9d3r7scgIrLYgvwBB5-5" value="&lt;u&gt;&lt;font style=&quot;color: light-dark(rgb(0, 0, 0), rgb(215, 215, 217));&quot;&gt;resource_path&lt;/font&gt;&lt;/u&gt;&lt;div&gt;&lt;font style=&quot;color: light-dark(rgb(0, 0, 0), rgb(215, 215, 217));&quot;&gt;created_at&lt;/font&gt;&lt;/div&gt;&lt;div&gt;&lt;font style=&quot;color: light-dark(rgb(0, 0, 0), rgb(215, 215, 217));&quot;&gt;created_by&lt;/font&gt;&lt;/div&gt;&lt;div&gt;&lt;font style=&quot;color: light-dark(rgb(0, 0, 0), rgb(215, 215, 217));&quot;&gt;category&lt;/font&gt;&lt;/div&gt;" style="align=left;strokeColor=none;fillColor=light-dark(#FFFFFF,#37383F);spacingLeft=4;spacingRight=4;fontSize=12;verticalAlign=top;resizable=0;rotatable=0;part=1;html=1;whiteSpace=wrap;" parent="QR9d3r7scgIrLYgvwBB5-4" vertex="1">
          <mxGeometry y="30" width="160" height="70" as="geometry" />
        </mxCell>
        <mxCell id="QR9d3r7scgIrLYgvwBB5-9" value="FileData" style="swimlane;childLayout=stackLayout;horizontal=1;startSize=30;horizontalStack=0;rounded=1;fontSize=14;fontStyle=0;strokeWidth=2;resizeParent=0;resizeLast=1;shadow=0;dashed=0;align=center;arcSize=4;whiteSpace=wrap;html=1;strokeColor=none;fillColor=light-dark(#FFFFFF,#222222);" parent="1" vertex="1">
          <mxGeometry x="110" y="580" width="160" height="70" as="geometry" />
        </mxCell>
        <mxCell id="QR9d3r7scgIrLYgvwBB5-10" value="&lt;u&gt;resource_path&lt;/u&gt;&lt;div&gt;data&lt;/div&gt;" style="align=left;strokeColor=none;fillColor=light-dark(#FFFFFF,#37383F);spacingLeft=4;spacingRight=4;fontSize=12;verticalAlign=top;resizable=0;rotatable=0;part=1;html=1;whiteSpace=wrap;fontColor=light-dark(#000000,#D7D7D9);" parent="QR9d3r7scgIrLYgvwBB5-9" vertex="1">
          <mxGeometry y="30" width="160" height="40" as="geometry" />
        </mxCell>
        <mxCell id="QR9d3r7scgIrLYgvwBB5-20" value="GroupPermissions" style="swimlane;childLayout=stackLayout;horizontal=1;startSize=30;horizontalStack=0;rounded=1;fontSize=14;fontStyle=0;strokeWidth=2;resizeParent=0;resizeLast=1;shadow=0;dashed=0;align=center;arcSize=4;whiteSpace=wrap;html=1;strokeColor=none;fillColor=light-dark(#FFFFFF,#222222);gradientColor=none;fontColor=light-dark(#000000,#D7D7D9);" parent="1" vertex="1">
          <mxGeometry x="470" y="476.5" width="160" height="89" as="geometry" />
        </mxCell>
        <mxCell id="QR9d3r7scgIrLYgvwBB5-21" value="&lt;div&gt;&lt;u&gt;group_id&lt;/u&gt;&lt;div&gt;&lt;u&gt;path&lt;/u&gt;&lt;/div&gt;&lt;div&gt;type&lt;/div&gt;&lt;/div&gt;" style="align=left;strokeColor=none;fillColor=light-dark(#FFFFFF,#37383F);spacingLeft=4;spacingRight=4;fontSize=12;verticalAlign=top;resizable=0;rotatable=0;part=1;html=1;whiteSpace=wrap;fontColor=light-dark(#000000,#D7D7D9);" parent="QR9d3r7scgIrLYgvwBB5-20" vertex="1">
          <mxGeometry y="30" width="160" height="59" as="geometry" />
        </mxCell>
        <mxCell id="QR9d3r7scgIrLYgvwBB5-82" value="has" style="shape=rhombus;perimeter=rhombusPerimeter;whiteSpace=wrap;html=1;align=center;fillColor=light-dark(#FFFFFF,#37383F);strokeColor=none;" parent="1" vertex="1">
          <mxGeometry x="230" y="491" width="120" height="60" as="geometry" />
        </mxCell>
        <mxCell id="QR9d3r7scgIrLYgvwBB5-83" value="has" style="shape=rhombus;perimeter=rhombusPerimeter;whiteSpace=wrap;html=1;align=center;fillColor=light-dark(#FFFFFF,#37383F);strokeColor=none;" parent="1" vertex="1">
          <mxGeometry x="260" y="230" width="120" height="60" as="geometry" />
        </mxCell>
        <mxCell id="QR9d3r7scgIrLYgvwBB5-84" value="" style="edgeStyle=entityRelationEdgeStyle;fontSize=12;html=1;endArrow=ERzeroToMany;endFill=1;rounded=0;exitX=1;exitY=0.5;exitDx=0;exitDy=0;strokeColor=light-dark(#000000,#9A9BA4);" parent="1" source="QR9d3r7scgIrLYgvwBB5-5" target="QR9d3r7scgIrLYgvwBB5-83" edge="1">
          <mxGeometry width="100" height="100" relative="1" as="geometry">
            <mxPoint x="300" y="370" as="sourcePoint" />
            <mxPoint x="400" y="270" as="targetPoint" />
          </mxGeometry>
        </mxCell>
        <mxCell id="QR9d3r7scgIrLYgvwBB5-88" value="0...M" style="edgeLabel;html=1;align=center;verticalAlign=middle;resizable=0;points=[];labelBackgroundColor=none;" parent="QR9d3r7scgIrLYgvwBB5-84" vertex="1" connectable="0">
          <mxGeometry x="-0.5557" y="-2" relative="1" as="geometry">
            <mxPoint x="51" y="-82" as="offset" />
          </mxGeometry>
        </mxCell>
        <mxCell id="QR9d3r7scgIrLYgvwBB5-86" value="" style="edgeStyle=entityRelationEdgeStyle;fontSize=12;html=1;endArrow=ERmany;rounded=0;strokeColor=light-dark(#000000,#9A9BA4);" parent="1" source="QR9d3r7scgIrLYgvwBB5-2" target="QR9d3r7scgIrLYgvwBB5-83" edge="1">
          <mxGeometry width="100" height="100" relative="1" as="geometry">
            <mxPoint x="550" y="290" as="sourcePoint" />
            <mxPoint x="650" y="190" as="targetPoint" />
          </mxGeometry>
        </mxCell>
        <mxCell id="QR9d3r7scgIrLYgvwBB5-87" value="N" style="edgeLabel;html=1;align=center;verticalAlign=middle;resizable=0;points=[];labelBackgroundColor=none;" parent="QR9d3r7scgIrLYgvwBB5-86" vertex="1" connectable="0">
          <mxGeometry x="-0.6237" y="-3" relative="1" as="geometry">
            <mxPoint x="74" y="47" as="offset" />
          </mxGeometry>
        </mxCell>
        <mxCell id="QR9d3r7scgIrLYgvwBB5-90" value="" style="edgeStyle=entityRelationEdgeStyle;fontSize=12;html=1;endArrow=ERone;endFill=1;rounded=0;strokeColor=light-dark(#000000,#9A9BA4);" parent="1" source="QR9d3r7scgIrLYgvwBB5-5" target="QR9d3r7scgIrLYgvwBB5-82" edge="1">
          <mxGeometry width="100" height="100" relative="1" as="geometry">
            <mxPoint x="530" y="350" as="sourcePoint" />
            <mxPoint x="630" y="250" as="targetPoint" />
          </mxGeometry>
        </mxCell>
        <mxCell id="QR9d3r7scgIrLYgvwBB5-91" value="1" style="edgeLabel;html=1;align=center;verticalAlign=middle;resizable=0;points=[];labelBackgroundColor=none;" parent="QR9d3r7scgIrLYgvwBB5-90" vertex="1" connectable="0">
          <mxGeometry x="0.3365" relative="1" as="geometry">
            <mxPoint x="-10" y="-3" as="offset" />
          </mxGeometry>
        </mxCell>
        <mxCell id="QR9d3r7scgIrLYgvwBB5-92" value="" style="edgeStyle=entityRelationEdgeStyle;fontSize=12;html=1;endArrow=ERone;endFill=1;rounded=0;exitX=1;exitY=0.5;exitDx=0;exitDy=0;strokeColor=light-dark(#000000,#9A9BA4);" parent="1" target="QR9d3r7scgIrLYgvwBB5-82" edge="1">
          <mxGeometry width="100" height="100" relative="1" as="geometry">
            <mxPoint x="270" y="635" as="sourcePoint" />
            <mxPoint x="350" y="526" as="targetPoint" />
          </mxGeometry>
        </mxCell>
        <mxCell id="QR9d3r7scgIrLYgvwBB5-93" value="1" style="edgeLabel;html=1;align=center;verticalAlign=middle;resizable=0;points=[];labelBackgroundColor=none;" parent="QR9d3r7scgIrLYgvwBB5-92" vertex="1" connectable="0">
          <mxGeometry x="0.2156" y="1" relative="1" as="geometry">
            <mxPoint x="-9" as="offset" />
          </mxGeometry>
        </mxCell>
        <mxCell id="RMJezqJ9wQXo-V2EjESx-10" value="UserPermissions" style="swimlane;childLayout=stackLayout;horizontal=1;startSize=30;horizontalStack=0;rounded=1;fontSize=14;fontStyle=0;strokeWidth=2;resizeParent=0;resizeLast=1;shadow=0;dashed=0;align=center;arcSize=4;whiteSpace=wrap;html=1;strokeColor=none;fillColor=light-dark(#FFFFFF,#222222);gradientColor=none;fontColor=light-dark(#000000,#D7D7D9);" parent="1" vertex="1">
          <mxGeometry x="470" y="160" width="160" height="89" as="geometry" />
        </mxCell>
        <mxCell id="RMJezqJ9wQXo-V2EjESx-11" value="&lt;div&gt;&lt;u&gt;user_id&lt;/u&gt;&lt;div&gt;&lt;u&gt;path&lt;/u&gt;&lt;/div&gt;&lt;div&gt;type&lt;/div&gt;&lt;/div&gt;" style="align=left;strokeColor=none;fillColor=light-dark(#FFFFFF,#37383F);spacingLeft=4;spacingRight=4;fontSize=12;verticalAlign=top;resizable=0;rotatable=0;part=1;html=1;whiteSpace=wrap;fontColor=light-dark(#000000,#D7D7D9);" parent="RMJezqJ9wQXo-V2EjESx-10" vertex="1">
          <mxGeometry y="30" width="160" height="59" as="geometry" />
        </mxCell>
      </root>
    </mxGraphModel>
  </diagram>
</mxfile>
